<svg viewBox="0 0 61 50" xmlns="http://www.w3.org/2000/svg" xmlns:xlink="http://www.w3.org/1999/xlink" width="61.000000" height="50.000000" fill="none" customFrame="#000000">
	<defs>
		<clipPath id="clipPath_0">
			<rect width="30.000000" height="30.000000" x="15.500000" y="2.500000" fill="rgb(255,255,255)" />
		</clipPath>
	</defs>
	<rect id="фрейм 1" width="61.000000" height="50.000000" x="0.000000" y="0.000000" />
	<g id="2 Elements/Icons/Home/Filled/White" customFrame="url(#clipPath_0)">
		<rect id="2 Elements/Icons/Home/Filled/White" width="30.000000" height="30.000000" x="15.500000" y="2.500000" fill="rgb(255,255,255)" fill-opacity="0" />
		<path id="Stroke 1" d="M29.7242 5.39187L17.0992 17.2219C16.3067 17.9644 16.9504 19.1269 18.1542 19.1269C18.9279 19.1269 19.5554 19.6406 19.5554 20.2756L19.5554 29.0194C19.5554 29.6544 20.1829 30.1681 20.9567 30.1681L27.1329 30.1681C27.9067 30.1681 28.5342 29.6544 28.5342 29.0194L28.5342 23.9569C28.5342 23.3219 29.1617 22.8081 29.9354 22.8081L31.6217 22.8081C32.3954 22.8081 33.0229 23.3219 33.0229 23.9569L33.0229 29.0194C33.0229 29.6544 33.6504 30.1681 34.4242 30.1681L40.6004 30.1681C41.3742 30.1681 42.0017 29.6544 42.0017 29.0194L42.0017 20.2756C42.0017 19.6406 42.6292 19.1269 43.4029 19.1269C44.6067 19.1269 45.2504 17.9644 44.4579 17.2219L31.8329 5.39187C31.2754 4.86937 30.2829 4.86937 29.7242 5.39187Z" fill="rgb(0,95,255)" fill-rule="evenodd" />
	</g>
	<path id="" d="M11.8409 37.6826L7.84484 37.6826L7.85656 44.5L5.92297 44.5L5.92297 36.1006L11.8527 36.1006L11.8409 37.6826ZM17.3968 38.043L17.3968 44.5L15.5247 44.5L15.5247 39.5811L13.4827 39.5811L13.4241 40.7207C13.3929 41.5684 13.3128 42.2725 13.1839 42.833C13.0569 43.3916 12.8489 43.8311 12.5599 44.1514C12.2727 44.4717 11.8724 44.6318 11.3587 44.6318C11.0872 44.6318 10.764 44.584 10.389 44.4883L10.4827 42.9531C10.6116 42.9688 10.7044 42.9766 10.761 42.9766C11.0403 42.9766 11.2493 42.875 11.388 42.6719C11.5286 42.4668 11.6233 42.2061 11.6722 41.8896C11.721 41.5732 11.7571 41.1553 11.7806 40.6357L11.8772 38.043L17.3968 38.043ZM21.7062 37.9492C22.7062 37.9492 23.4737 38.1875 24.0089 38.6641C24.546 39.1387 24.8146 39.8564 24.8146 40.8174L24.8146 44.5L23.0626 44.5L23.0626 43.6973C22.7091 44.2969 22.0528 44.5967 21.0939 44.5967C20.5978 44.5967 20.1671 44.5127 19.8019 44.3447C19.4386 44.1768 19.1612 43.9453 18.9698 43.6504C18.7784 43.3535 18.6827 43.0166 18.6827 42.6396C18.6827 42.04 18.9083 41.5684 19.3595 41.2246C19.8106 40.8809 20.5089 40.709 21.4542 40.709L22.9425 40.709C22.9425 40.3008 22.8185 39.9863 22.5704 39.7656C22.3224 39.5449 21.9503 39.4346 21.4542 39.4346C21.1105 39.4346 20.7726 39.4893 20.4405 39.5986C20.1085 39.7061 19.8263 39.8516 19.5939 40.0352L18.92 38.7285C19.2735 38.4805 19.6964 38.2891 20.1886 38.1543C20.6808 38.0176 21.1866 37.9492 21.7062 37.9492ZM21.5626 43.3369C21.881 43.3369 22.1642 43.2627 22.4122 43.1143C22.6603 42.9658 22.837 42.748 22.9425 42.4609L22.9425 41.7988L21.6564 41.7988C20.8888 41.7988 20.505 42.0508 20.505 42.5547C20.505 42.7949 20.5987 42.9854 20.7862 43.126C20.9757 43.2666 21.2345 43.3369 21.5626 43.3369ZM31.377 41.1279C32.1368 41.3838 32.5167 41.8955 32.5167 42.6631C32.5167 43.2471 32.296 43.6992 31.8545 44.0195C31.4151 44.3398 30.7598 44.5 29.8887 44.5L26.4434 44.5L26.4434 38.043L29.7452 38.043C30.5518 38.043 31.1827 38.1895 31.6378 38.4824C32.0948 38.7734 32.3233 39.1836 32.3233 39.7129C32.3233 40.0332 32.2413 40.3154 32.0772 40.5596C31.9131 40.8018 31.6797 40.9912 31.377 41.1279ZM28.1602 40.6973L29.5753 40.6973C30.2315 40.6973 30.5596 40.4648 30.5596 40C30.5596 39.5449 30.2315 39.3174 29.5753 39.3174L28.1602 39.3174L28.1602 40.6973ZM29.7335 43.2285C30.421 43.2285 30.7647 42.9922 30.7647 42.5195C30.7647 42.2715 30.6846 42.0898 30.5245 41.9746C30.3643 41.8574 30.1124 41.7988 29.7686 41.7988L28.1602 41.7988L28.1602 43.2285L29.7335 43.2285ZM33.9074 38.043L35.7678 38.043L35.7678 40.5654L38.5773 40.5654L38.5773 38.043L40.4494 38.043L40.4494 44.5L38.5773 44.5L38.5773 42.0889L35.7678 42.0889L35.7678 44.5L33.9074 44.5L33.9074 38.043ZM44.7462 37.9492C45.7462 37.9492 46.5137 38.1875 47.0489 38.6641C47.586 39.1387 47.8546 39.8564 47.8546 40.8174L47.8546 44.5L46.1026 44.5L46.1026 43.6973C45.7491 44.2969 45.0928 44.5967 44.1339 44.5967C43.6378 44.5967 43.2071 44.5127 42.8419 44.3447C42.4786 44.1768 42.2012 43.9453 42.0098 43.6504C41.8184 43.3535 41.7227 43.0166 41.7227 42.6396C41.7227 42.04 41.9483 41.5684 42.3995 41.2246C42.8506 40.8809 43.5489 40.709 44.4942 40.709L45.9825 40.709C45.9825 40.3008 45.8585 39.9863 45.6104 39.7656C45.3624 39.5449 44.9903 39.4346 44.4942 39.4346C44.1505 39.4346 43.8126 39.4893 43.4805 39.5986C43.1485 39.7061 42.8663 39.8516 42.6339 40.0352L41.96 38.7285C42.3135 38.4805 42.7364 38.2891 43.2286 38.1543C43.7208 38.0176 44.2266 37.9492 44.7462 37.9492ZM44.6026 43.3369C44.921 43.3369 45.2042 43.2627 45.4522 43.1143C45.7003 42.9658 45.877 42.748 45.9825 42.4609L45.9825 41.7988L44.6964 41.7988C43.9288 41.7988 43.545 42.0508 43.545 42.5547C43.545 42.7949 43.6387 42.9854 43.8262 43.126C44.0157 43.2666 44.2745 43.3369 44.6026 43.3369ZM55.2197 38.043L55.2197 44.5L53.5527 44.5L53.5527 42.6514L52.1729 42.6514L50.9483 44.5L48.9561 44.5L50.4326 42.3877C49.9834 42.2119 49.6406 41.958 49.4043 41.626C49.1699 41.2939 49.0527 40.8916 49.0527 40.4189C49.0527 39.6592 49.3262 39.0732 49.8731 38.6611C50.4219 38.249 51.1758 38.043 52.1348 38.043L55.2197 38.043ZM52.1729 39.5693C51.7725 39.5693 51.4697 39.6416 51.2647 39.7861C51.0615 39.9287 50.96 40.1602 50.96 40.4805C50.96 40.8008 51.0576 41.0352 51.2529 41.1836C51.4502 41.3301 51.749 41.4033 52.1494 41.4033L53.5527 41.4033L53.5527 39.5693L52.1729 39.5693Z" fill="rgb(0,95,255)" fill-rule="nonzero" />
</svg>
