<svg viewBox="0 0 26 26" xmlns="http://www.w3.org/2000/svg" xmlns:xlink="http://www.w3.org/1999/xlink" width="26.000000" height="26.000000" fill="none">
	<defs>
		<clipPath id="clipPath_0">
			<rect width="22.000000" height="22.000000" x="2.000000" y="2.000000" rx="2.600000" fill="rgb(255,255,255)" />
		</clipPath>
		<clipPath id="clipPath_1">
			<rect width="16.000000" height="16.000000" x="5.000000" y="5.000000" fill="rgb(255,255,255)" />
		</clipPath>
	</defs>
	<rect id="Фрейм 6" width="26.000000" height="26.000000" x="0.000000" y="0.000000" />
	<g id="Фрейм 4" clip-path="url(#clipPath_0)" customFrame="url(#clipPath_0)">
		<rect id="Фрейм 4" width="22.000000" height="22.000000" x="2.000000" y="2.000000" rx="2.600000" fill="rgb(255,255,255)" />
		<g id="24/ic_nav_download_24_lm_m" customFrame="url(#clipPath_1)">
			<rect id="24/ic_nav_download_24_lm_m" width="16.000000" height="16.000000" x="5.000000" y="5.000000" />
			<path id="Union" d="M13.6667 7.66667C13.6667 7.29848 13.3682 7 13 7C12.6318 7 12.3334 7.29848 12.3334 7.66667L12.3334 14.0572L10.6095 12.3333C10.3492 12.073 9.92705 12.073 9.6667 12.3333C9.40635 12.5937 9.40635 13.0158 9.6667 13.2761L12.4108 16.0202C12.7362 16.3457 13.2638 16.3457 13.5893 16.0202L16.3333 13.2761C16.5937 13.0158 16.5937 12.5937 16.3333 12.3333C16.073 12.073 15.6509 12.073 15.3905 12.3333L13.6667 14.0572L13.6667 7.66667ZM7.66667 15C8.03486 15 8.33333 15.2985 8.33333 15.6667L8.33333 17.6667C8.33333 18.0349 8.63181 18.3333 9 18.3333L17 18.3333C17.3682 18.3333 17.6667 18.0349 17.6667 17.6667L17.6667 15.6667C17.6667 15.2985 17.9651 15 18.3333 15C18.7015 15 19 15.2985 19 15.6667L19 17.6667C19 18.7712 18.1046 19.6667 17 19.6667L9 19.6667C7.89543 19.6667 7 18.7712 7 17.6667L7 15.6667C7 15.2985 7.29848 15 7.66667 15Z" fill="rgb(0,0,0)" fill-rule="evenodd" />
		</g>
	</g>
</svg>
