<svg viewBox="0 0 26 26" xmlns="http://www.w3.org/2000/svg" xmlns:xlink="http://www.w3.org/1999/xlink" width="26.000000" height="26.000000" fill="none">
	<defs>
		<clipPath id="clipPath_4">
			<rect width="22.000000" height="22.000000" x="2.000000" y="2.000000" rx="2.600000" fill="rgb(255,255,255)" />
		</clipPath>
	</defs>
	<rect id="фрейм 38" width="26.000000" height="26.000000" x="0.000000" y="0.000000" />
	<g id="svg 3" clip-path="url(#clipPath_4)" customFrame="url(#clipPath_4)">
		<rect id="svg 3" width="22.000000" height="22.000000" x="2.000000" y="2.000000" rx="2.600000" fill="rgb(0,95,255)" />
		<path id="Форма 3" d="M6.60425 14.3116L5.21887 14.3116L5.21887 13.0216L6.60425 13.0216L6.60425 14.3116ZM8.02542 11.6984L6.60425 11.6984L6.60425 13.0216L8.02542 13.0216L8.02542 11.6984ZM9.44659 10.3751L8.02542 10.3751L8.02542 11.6984L9.44659 11.6984L9.44659 10.3751ZM10.8677 9.05187L9.44655 9.05187L9.44655 10.3751L10.8677 10.3751L10.8677 9.05187ZM12.2531 7.75272L10.8677 7.75272L10.8677 9.0519L12.2531 9.0519L12.2531 7.75272ZM13.6821 5.14319L12.2531 5.14319L12.2531 7.75272L13.6822 7.75272L13.6821 5.14319ZM15.1164 3.83301L13.6821 3.83301L13.6821 5.12294L15.1164 5.12294L15.1164 3.83301ZM15.1164 6.41288L16.5034 6.41288L16.5034 5.14853L15.1164 5.14853L15.1164 6.41288ZM16.5034 7.75272L17.9073 7.75272L17.9073 6.429L16.5034 6.429L16.5034 7.75272ZM17.9073 9.06469L19.3367 9.06469L19.3367 7.75272L17.9073 7.75272L17.9073 9.06469ZM19.3367 10.3418L20.7336 10.3418L20.7336 9.06469L19.3367 9.06469L19.3367 10.3418ZM22.1668 10.3579L20.7336 10.3579L20.7336 13.0019L22.1668 13.0019L22.1668 10.3579ZM13.6822 7.75272L13.6822 9.06857L15.0922 9.06857L15.0922 7.75272L13.6822 7.75272ZM15.0922 9.06857L15.0922 10.3918L16.5034 10.3918L16.5034 9.06857L15.0922 9.06857ZM17.9073 11.6818L17.9073 10.3918L16.5034 10.3918L16.5034 11.6818L17.9073 11.6818ZM15.1063 16.9369L16.5034 16.9369L16.5034 15.647L15.1062 15.647L15.1063 16.9369ZM10.8828 20.8822L9.4611 20.8822L9.4611 22.1663L12.3085 22.1663L12.3085 20.8822L13.6883 20.8822L13.6883 18.252L15.1063 18.252L15.1063 16.9369L13.6883 16.9369L13.6883 18.252L12.2717 18.252L12.2676 19.5672L10.8892 19.5672L10.8892 20.8823M8.05417 20.8823L9.4611 20.8823L9.4611 19.5672L8.05417 19.5672L8.05417 20.8823ZM6.65082 18.252L6.65082 19.5671L8.05417 19.5671L8.05417 18.252L6.65082 18.252ZM5.21887 16.9369L5.21887 18.252L6.65082 18.252L6.65082 16.9369L5.21887 16.9369ZM5.21887 14.3116L3.8335 14.3116L3.8335 16.9369L5.21887 16.9369L5.21887 14.3116ZM19.3367 11.6952L17.9073 11.6952L17.9073 14.3286L16.5034 14.3286L16.5034 15.6185L17.9073 15.6185L17.9073 14.3333L20.7336 14.3333L20.7336 13.0075L19.3367 13.0075L19.3367 11.6952Z" fill="rgb(255,255,255)" fill-rule="nonzero" />
	</g>
</svg>
