<svg viewBox="0 0 26 26" xmlns="http://www.w3.org/2000/svg" xmlns:xlink="http://www.w3.org/1999/xlink" width="26.000000" height="26.000000" fill="none" clip-path="url(#clipPath_3)" customFrame="url(#clipPath_3)">
	<defs>
		<clipPath id="clipPath_3">
			<rect width="26.000000" height="26.000000" x="0.000000" y="0.000000" rx="4.000000" fill="rgb(255,255,255)" />
		</clipPath>
	</defs>
	<rect id="svg 7" width="26.000000" height="26.000000" x="0.000000" y="0.000000" rx="4.000000" />
	<path id="Форма 1" d="M21.25 24L4.75 24C3.99088 24 3.34277 23.7314 2.80566 23.1943C2.26855 22.6572 2 22.0091 2 21.25L2 4.75C2 3.99089 2.26855 3.34277 2.80566 2.80566C3.34277 2.26855 3.99089 2 4.75 2L21.25 2C22.0091 2 22.6572 2.26855 23.1943 2.80566C23.7314 3.34277 24 3.99089 24 4.75L24 21.25C24 22.0091 23.7314 22.6572 23.1943 23.1943C22.6572 23.7314 22.0091 24 21.25 24ZM21.25 6.125L15.75 6.125L15.75 11.625L10.25 11.625L10.25 6.125L4.75 6.125L4.75 11.625L10.25 11.625L10.25 14.375L7.5 14.375L7.5 19.875L10.25 19.875L10.25 17.125L15.75 17.125L15.75 19.875L18.5 19.875L18.5 14.375L15.75 14.375L15.75 11.625L21.25 11.625L21.25 6.125Z" fill="rgb(0,95,255)" fill-rule="nonzero" />
	<path id="Форма 1" d="M15.75 6.125L21.25 6.125L21.25 11.625L15.75 11.625L15.75 6.125Z" fill="rgb(0,95,255)" fill-rule="evenodd" />
	<path id="Форма 1" d="M15.75 6.125L21.25 6.125L21.25 11.625L15.75 11.625L15.75 6.125Z" fill="rgb(255,255,255)" fill-rule="evenodd" />
	<path id="Форма 1" d="M10.25 6.125L10.25 11.625L4.75 11.625L4.75 6.125L10.25 6.125Z" fill="rgb(0,95,255)" fill-rule="evenodd" />
	<path id="Форма 1" d="M10.25 6.125L10.25 11.625L4.75 11.625L4.75 6.125L10.25 6.125Z" fill="rgb(255,255,255)" fill-rule="evenodd" />
	<path id="Форма 1" d="M10.25 11.625L15.75 11.625L15.75 14.375L18.5 14.375L18.5 19.875L15.75 19.875L15.75 17.125L10.25 17.125L10.25 19.875L7.5 19.875L7.5 14.375L10.25 14.375L10.25 11.625Z" fill="rgb(0,95,255)" fill-rule="evenodd" />
	<path id="Форма 1" d="M10.25 11.625L15.75 11.625L15.75 14.375L18.5 14.375L18.5 19.875L15.75 19.875L15.75 17.125L10.25 17.125L10.25 19.875L7.5 19.875L7.5 14.375L10.25 14.375L10.25 11.625Z" fill="rgb(255,255,255)" fill-rule="evenodd" />
</svg>
