<svg viewBox="0 0 72 50" xmlns="http://www.w3.org/2000/svg" xmlns:xlink="http://www.w3.org/1999/xlink" width="72.000000" height="50.000000" fill="none" customFrame="#000000">
	<defs>
		<clipPath id="clipPath_4">
			<rect width="30.000000" height="30.000000" x="21.000000" y="2.500000" fill="rgb(255,255,255)" />
		</clipPath>
	</defs>
	<rect id="фрейм 2" width="72.000000" height="50.000000" x="0.000000" y="0.000000" />
	<g id="settings" clip-path="url(#clipPath_4)" customFrame="url(#clipPath_4)">
		<rect id="settings" width="30.000000" height="30.000000" x="21.000000" y="2.500000" fill="rgb(255,255,255)" fill-opacity="0" />
		<path id="矢量 286" d="M45.6914 18.3696C45.7446 17.9713 45.7711 17.5597 45.7711 17.1215C45.7711 16.6966 45.7446 16.2718 45.6782 15.8734L48.3735 13.7756C48.6125 13.5897 48.6789 13.2312 48.5329 12.9657L45.9836 8.55747C45.8242 8.26536 45.4923 8.17241 45.2002 8.26536L42.0268 9.54001C41.3629 9.03546 40.6592 8.61058 39.8758 8.29191L39.3978 4.91938C39.3447 4.60072 39.0792 4.375 38.7605 4.375L33.6619 4.375C33.3432 4.375 33.0909 4.60072 33.0378 4.91938L32.5598 8.29191C31.7764 8.61058 31.0595 9.04874 30.4088 9.54001L27.2355 8.26536C26.9434 8.15913 26.6114 8.26536 26.4521 8.55747L23.9161 12.9657C23.7567 13.2445 23.8098 13.5897 24.0754 13.7756L26.7708 15.8734C26.7044 16.2718 26.6513 16.7099 26.6513 17.1215C26.6513 17.5331 26.6778 17.9713 26.7442 18.3696L24.0488 20.4675C23.8098 20.6534 23.7435 21.0119 23.8895 21.2774L26.4388 25.6856C26.5982 25.9777 26.9301 26.0707 27.2222 25.9777L30.3956 24.7031C31.0595 25.2076 31.7632 25.6325 32.5465 25.9512L33.0245 29.3237C33.0909 29.6424 33.3432 29.8681 33.6619 29.8681L38.7605 29.8681C39.0792 29.8681 39.3447 29.6424 39.3845 29.3237L39.8625 25.9512C40.6459 25.6325 41.3629 25.2076 42.0135 24.7031L45.1869 25.9777C45.479 26.084 45.8109 25.9777 45.9703 25.6856L48.5196 21.2774C48.6789 20.9853 48.6125 20.6534 48.3602 20.4675L45.6914 18.3696ZM36.2112 21.9015C33.5822 21.9015 31.4312 19.7505 31.4312 17.1215C31.4312 14.4926 33.5822 12.3416 36.2112 12.3416C38.8402 12.3416 40.9911 14.4926 40.9911 17.1215C40.9911 19.7505 38.8402 21.9015 36.2112 21.9015Z" fill="rgb(130,130,130)" fill-rule="evenodd" />
	</g>
	<path id="" d="M9.01205 36.1006L9.01205 44.5L7.06673 44.5L7.06673 41.0547L3.25228 41.0547L3.25228 44.5L1.30697 44.5L1.30697 36.1006L3.25228 36.1006L3.25228 39.4111L7.06673 39.4111L7.06673 36.1006L9.01205 36.1006ZM13.4782 37.9492C14.4782 37.9492 15.2457 38.1875 15.7809 38.6641C16.318 39.1387 16.5866 39.8564 16.5866 40.8174L16.5866 44.5L14.8346 44.5L14.8346 43.6973C14.4811 44.2969 13.8248 44.5967 12.8659 44.5967C12.3698 44.5967 11.9391 44.5127 11.5739 44.3447C11.2106 44.1768 10.9332 43.9453 10.7418 43.6504C10.5504 43.3535 10.4547 43.0166 10.4547 42.6396C10.4547 42.04 10.6803 41.5684 11.1315 41.2246C11.5826 40.8809 12.2809 40.709 13.2262 40.709L14.7145 40.709C14.7145 40.3008 14.5905 39.9863 14.3424 39.7656C14.0944 39.5449 13.7223 39.4346 13.2262 39.4346C12.8825 39.4346 12.5446 39.4893 12.2125 39.5986C11.8805 39.7061 11.5983 39.8516 11.3659 40.0352L10.692 38.7285C11.0455 38.4805 11.4684 38.2891 11.9606 38.1543C12.4528 38.0176 12.9586 37.9492 13.4782 37.9492ZM13.3346 43.3369C13.653 43.3369 13.9362 43.2627 14.1842 43.1143C14.4323 42.9658 14.609 42.748 14.7145 42.4609L14.7145 41.7988L13.4284 41.7988C12.6608 41.7988 12.277 42.0508 12.277 42.5547C12.277 42.7949 12.3707 42.9854 12.5582 43.126C12.7477 43.2666 13.0065 43.3369 13.3346 43.3369ZM21.2887 44.5967C20.6012 44.5967 19.983 44.4551 19.4342 44.1719C18.8853 43.8867 18.4566 43.4922 18.148 42.9883C17.8414 42.4844 17.6881 41.9121 17.6881 41.2715C17.6881 40.6309 17.8414 40.0586 18.148 39.5547C18.4566 39.0508 18.8853 38.6572 19.4342 38.374C19.983 38.0908 20.6012 37.9492 21.2887 37.9492C21.9683 37.9492 22.5621 38.0908 23.0699 38.374C23.5777 38.6572 23.9478 39.0635 24.1803 39.5928L22.7271 40.3721C22.3912 39.7803 21.9078 39.4844 21.2769 39.4844C20.7887 39.4844 20.3844 39.6445 20.064 39.9648C19.7437 40.2852 19.5836 40.7207 19.5836 41.2715C19.5836 41.8242 19.7437 42.2607 20.064 42.5811C20.3844 42.8994 20.7887 43.0586 21.2769 43.0586C21.9156 43.0586 22.399 42.7627 22.7271 42.1709L24.1803 42.9648C23.9478 43.4766 23.5777 43.877 23.0699 44.166C22.5621 44.4531 21.9683 44.5967 21.2887 44.5967ZM30.7212 39.5811L28.5356 39.5811L28.5356 44.5L26.6753 44.5L26.6753 39.5811L24.4927 39.5811L24.4927 38.043L30.7212 38.043L30.7212 39.5811ZM35.5182 37.9492C36.1197 37.9492 36.6656 38.0869 37.1558 38.3623C37.648 38.6377 38.0338 39.0254 38.3131 39.5254C38.5943 40.0254 38.7349 40.6074 38.7349 41.2715C38.7349 41.9355 38.5943 42.5176 38.3131 43.0176C38.0338 43.5176 37.648 43.9062 37.1558 44.1836C36.6656 44.459 36.1197 44.5967 35.5182 44.5967C34.6959 44.5967 34.0484 44.3369 33.5758 43.8174L33.5758 46.8291L31.7037 46.8291L31.7037 38.043L33.4908 38.043L33.4908 38.7871C33.9557 38.2285 34.6314 37.9492 35.5182 37.9492ZM35.1959 43.0586C35.6764 43.0586 36.0699 42.8975 36.3765 42.5752C36.6851 42.251 36.8394 41.8164 36.8394 41.2715C36.8394 40.7285 36.6851 40.2949 36.3765 39.9707C36.0699 39.6465 35.6764 39.4844 35.1959 39.4844C34.7154 39.4844 34.3209 39.6465 34.0123 39.9707C33.7057 40.2949 33.5523 40.7285 33.5523 41.2715C33.5523 41.8164 33.7057 42.251 34.0123 42.5752C34.3209 42.8975 34.7154 43.0586 35.1959 43.0586ZM43.0669 44.5967C42.3872 44.5967 41.7768 44.4551 41.2358 44.1719C40.6967 43.8867 40.2749 43.4922 39.9702 42.9883C39.6674 42.4844 39.5161 41.9121 39.5161 41.2715C39.5161 40.6309 39.6674 40.0586 39.9702 39.5547C40.2749 39.0508 40.6967 38.6572 41.2358 38.374C41.7768 38.0908 42.3872 37.9492 43.0669 37.9492C43.7485 37.9492 44.3569 38.0908 44.892 38.374C45.4292 38.6572 45.8491 39.0508 46.1518 39.5547C46.4565 40.0586 46.6088 40.6309 46.6088 41.2715C46.6088 41.9121 46.4565 42.4844 46.1518 42.9883C45.8491 43.4922 45.4292 43.8867 44.892 44.1719C44.3569 44.4551 43.7485 44.5967 43.0669 44.5967ZM43.0669 43.0586C43.5473 43.0586 43.9419 42.8975 44.2504 42.5752C44.559 42.251 44.7133 41.8164 44.7133 41.2715C44.7133 40.7285 44.559 40.2949 44.2504 39.9707C43.9419 39.6465 43.5473 39.4844 43.0669 39.4844C42.5883 39.4844 42.1928 39.6465 41.8803 39.9707C41.5678 40.2949 41.4116 40.7285 41.4116 41.2715C41.4116 41.8164 41.5678 42.251 41.8803 42.5752C42.1928 42.8975 42.5883 43.0586 43.0669 43.0586ZM47.8914 38.043L49.7518 38.043L49.7518 41.8838L52.8953 38.043L54.6121 38.043L54.6121 44.5L52.7518 44.5L52.7518 40.6592L49.6199 44.5L47.8914 44.5L47.8914 38.043ZM51.1316 37.3486C49.7234 37.3486 49.0154 36.7285 49.0076 35.4883L50.2322 35.4883C50.24 35.7676 50.3182 35.9854 50.4666 36.1416C50.615 36.2979 50.8328 36.376 51.1199 36.376C51.409 36.376 51.6307 36.2979 51.785 36.1416C51.9412 35.9854 52.0193 35.7676 52.0193 35.4883L53.2674 35.4883C53.2596 36.7285 52.5477 37.3486 51.1316 37.3486ZM59.2561 42.0508L58.2835 42.0508L58.2835 44.5L56.4114 44.5L56.4114 38.043L58.2835 38.043L58.2835 40.5508L59.2913 40.5508L61.0433 38.043L63.0354 38.043L60.7796 41.1396L63.1907 44.5L60.9847 44.5L59.2561 42.0508ZM64.1154 38.043L65.9758 38.043L65.9758 41.8838L69.1193 38.043L70.8361 38.043L70.8361 44.5L68.9758 44.5L68.9758 40.6592L65.8439 44.5L64.1154 44.5L64.1154 38.043Z" fill="rgb(130,130,130)" fill-rule="nonzero" />
</svg>
