<svg viewBox="0 0 60 60" xmlns="http://www.w3.org/2000/svg" xmlns:xlink="http://www.w3.org/1999/xlink" width="60.000000" height="60.000000" fill="none" customFrame="#000000">
	<rect id="logo_2 2" width="60.000000" height="60.000000" x="0.000000" y="0.000000" />
	<g id="Сочетание 8">
		<path id="Многоугольник 1" d="M49.9808 11.5359C53.6936 13.6796 55.9808 17.6411 55.9808 21.9282L55.9808 38.0718C55.9808 42.359 53.6936 46.3206 49.9808 48.4641L36 56.5359C32.2872 58.6796 27.7128 58.6795 24 56.5359L10.0192 48.4641C6.30641 46.3205 4.01923 42.359 4.01923 38.0718L4.01923 21.9282C4.01923 17.6411 6.30641 13.6796 10.0192 11.5359L24 3.46414C27.7128 1.32055 32.2872 1.32055 36 3.46414L49.9808 11.5359Z" fill="rgb(3,100,255)" fill-rule="evenodd" />
		<path id="Форма " d="M14.2365 39.0001L18.4386 39.0001L18.4386 32.0725L25.9998 32.0725L25.9998 39.0001L30.1957 39.0001L30.1957 21.3613L25.9998 21.3613L25.9998 28.2888L18.4386 28.2888L18.4386 21.3613L14.2365 21.3613L14.2365 39.0001ZM33.4641 39.0001L46.5687 39.0001L46.5687 35.2225L37.6662 35.2225L37.6662 21.3613L33.4641 21.3613L33.4641 39.0001Z" fill="rgb(255,255,255)" fill-rule="nonzero" />
	</g>
</svg>
