<svg viewBox="0 0 60 60" xmlns="http://www.w3.org/2000/svg" xmlns:xlink="http://www.w3.org/1999/xlink" width="60.000000" height="60.000000" fill="none" customFrame="#000000">
	<defs>
		<clipPath id="clipPath_1">
			<rect width="35.625000" height="35.625000" x="12.187500" y="12.187500" fill="rgb(255,255,255)" />
		</clipPath>
	</defs>
	<rect id="logotype" width="60.000000" height="60.000000" x="0.000000" y="0.000000" />
	<g id="Сочетание 8">
		<path id="Многоугольник 1" d="M49.9811 11.5359C53.6939 13.6796 55.9811 17.6411 55.9811 21.9282L55.9811 38.0718C55.9811 42.359 53.6939 46.3206 49.9811 48.4641L36.0003 56.5359C32.2875 58.6796 27.7131 58.6795 24.0003 56.5359L10.0195 48.4641C6.30671 46.3205 4.01953 42.359 4.01953 38.0718L4.01953 21.9282C4.01953 17.6411 6.30671 13.6796 10.0195 11.5359L24.0003 3.46414C27.7131 1.32055 32.2875 1.32055 36.0003 3.46414L49.9811 11.5359Z" fill="rgb(3,100,255)" fill-rule="evenodd" />
	</g>
	<g id="Frame 11 2" clip-path="url(#clipPath_1)" customFrame="url(#clipPath_1)">
		<rect id="Frame 11 2" width="35.625000" height="35.625000" x="12.187500" y="12.187500" />
		<path id="Вектор 1" d="M18.0681 22.3165C18.0717 19.6271 21.4584 18.7748 21.7235 18.9642C21.7295 18.9685 21.7424 18.9642 21.7424 18.9642L21.7424 28.4909L29.5646 28.4909L29.5646 17.3922C30.3413 14.8164 33.2578 15.1194 33.2578 15.1194L33.2578 38.2449C33.2578 38.2449 30.076 38.3586 29.5457 34.8547L29.5457 32.1463L21.7424 32.1463C21.7424 34.8547 21.7235 38.0744 21.7235 41.3511C21.269 44.8359 18.0303 44.8359 18.0303 44.8359C18.0303 44.8359 18.0491 36.3698 18.0681 22.3165Z" fill="rgb(255,255,255)" fill-rule="nonzero" />
		<path id="Вектор 2" d="M25.1895 34.4951L25.1895 44.8742L41.9701 44.8742C41.9701 44.8742 41.8944 41.5219 37.9928 41.162L28.8828 41.162L28.8828 37.9801C28.466 34.4951 25.1895 34.4951 25.1895 34.4951Z" fill="rgb(255,255,255)" fill-rule="nonzero" />
		<path id="Вектор 3" d="M41.9701 39.6654L41.9701 22.6006L40.2844 22.6006C40.2844 22.6006 38.8451 22.9036 38.2578 24.0968C38.2578 26.3213 38.2578 32.2948 38.2578 35.439L38.2578 36.4646C38.826 39.8548 41.9701 39.6654 41.9701 39.6654Z" fill="rgb(255,255,255)" fill-rule="nonzero" />
	</g>
</svg>
