<svg viewBox="0 0 64 64" xmlns="http://www.w3.org/2000/svg" xmlns:xlink="http://www.w3.org/1999/xlink" width="64.000000" height="64.000000" fill="none" customFrame="#000000">
	<defs>
		<clipPath id="clipPath_0">
			<rect width="38.000000" height="38.000000" x="13.000000" y="13.000000" fill="rgb(255,255,255)" />
		</clipPath>
	</defs>
	<rect id="logo_64x64" width="64.000000" height="64.000000" x="0.000000" y="0.000000" />
	<g id="Сочетание 8">
		<path id="Многоугольник 1" d="M53.3128 12.3053C57.2731 14.5918 59.7128 18.8174 59.7128 23.3904L59.7128 40.6102C59.7128 45.1832 57.2731 49.4089 53.3128 51.6953L38.3999 60.3053C34.4396 62.5918 29.5602 62.5917 25.5999 60.3053L10.6871 51.6953C6.72677 49.4088 4.28711 45.1832 4.28711 40.6102L4.28711 23.3904C4.28711 18.8174 6.72677 14.5918 10.6871 12.3053L25.5999 3.69534C29.5602 1.40884 34.4396 1.40884 38.3999 3.69534L53.3128 12.3053Z" fill="rgb(3,100,255)" fill-rule="evenodd" />
	</g>
	<g id="Frame 11 2" clip-path="url(#clipPath_0)" customFrame="url(#clipPath_0)">
		<rect id="Frame 11 2" width="38.000000" height="38.000000" x="13.000000" y="13.000000" />
		<path id="Вектор 1" d="M19.2728 23.8049C19.2766 20.9361 22.889 20.027 23.1719 20.229C23.1783 20.2336 23.1921 20.229 23.1921 20.229L23.1921 30.3909L31.5357 30.3909L31.5357 18.5522C32.3642 15.8047 35.4751 16.1279 35.4751 16.1279L35.4751 40.7951C35.4751 40.7951 32.0812 40.9164 31.5155 37.1789L31.5155 34.29L23.1921 34.29C23.1921 37.1789 23.1719 40.6133 23.1719 44.1084C22.6871 47.8256 19.2324 47.8256 19.2324 47.8256C19.2324 47.8256 19.2526 38.7951 19.2728 23.8049Z" fill="rgb(255,255,255)" fill-rule="nonzero" />
		<path id="Вектор 2" d="M26.8682 36.7949L26.8682 47.866L44.7675 47.866C44.7675 47.866 44.6868 44.2901 40.525 43.9063L30.8077 43.9063L30.8077 40.5122C30.3631 36.7949 26.8682 36.7949 26.8682 36.7949Z" fill="rgb(255,255,255)" fill-rule="nonzero" />
		<path id="Вектор 3" d="M44.7683 42.3099L44.7683 24.1074L42.9703 24.1074C42.9703 24.1074 41.435 24.4307 40.8086 25.7034C40.8086 28.0762 40.8086 34.4479 40.8086 37.8017L40.8086 38.8957C41.4147 42.5119 44.7683 42.3099 44.7683 42.3099Z" fill="rgb(255,255,255)" fill-rule="nonzero" />
	</g>
</svg>
