<svg viewBox="0 0 26 26" xmlns="http://www.w3.org/2000/svg" xmlns:xlink="http://www.w3.org/1999/xlink" width="26.000000" height="26.000000" fill="none">
	<defs>
		<clipPath id="clipPath_9">
			<rect width="21.666666" height="21.666666" x="2.166504" y="2.166992" rx="2.600000" fill="rgb(255,255,255)" />
		</clipPath>
	</defs>
	<rect id="фрейм 35" width="26.000000" height="26.000000" x="0.000000" y="0.000000" />
	<g id="svg 3" clip-path="url(#clipPath_9)" customFrame="url(#clipPath_9)">
		<rect id="svg 3" width="21.666666" height="21.666666" x="2.166504" y="2.166992" rx="2.600000" fill="rgb(255,255,255)" />
		<path id="Форма 3" d="M6.70094 14.2925L5.33656 14.2925L5.33656 13.0221L6.70094 13.0221L6.70094 14.2925ZM8.10058 11.7189L6.70094 11.7189L6.70094 13.0221L8.10058 13.0221L8.10058 11.7189ZM9.50021 10.4156L8.10058 10.4156L8.10058 11.7189L9.50021 11.7189L9.50021 10.4156ZM10.8998 9.11244L9.50018 9.11244L9.50018 10.4156L10.8998 10.4156L10.8998 9.11244ZM12.2642 7.83298L10.8998 7.83298L10.8998 9.11248L12.2642 9.11248L12.2642 7.83298ZM13.6716 5.26298L12.2642 5.26298L12.2642 7.83298L13.6716 7.83298L13.6716 5.26298ZM15.0841 3.97266L13.6716 3.97266L13.6716 5.24305L15.0841 5.24305L15.0841 3.97266ZM15.0841 6.51344L16.4501 6.51344L16.4501 5.26824L15.0841 5.26824L15.0841 6.51344ZM16.4501 7.83298L17.8328 7.83298L17.8328 6.52932L16.4501 6.52932L16.4501 7.83298ZM17.8328 9.12507L19.2405 9.12507L19.2405 7.83298L17.8328 7.83298L17.8328 9.12507ZM19.2405 10.3829L20.6162 10.3829L20.6162 9.12507L19.2405 9.12507L19.2405 10.3829ZM22.0277 10.3987L20.6162 10.3987L20.6162 13.0027L22.0277 13.0027L22.0277 10.3987ZM13.6716 7.83298L13.6716 9.12889L15.0602 9.12889L15.0602 7.83298L13.6716 7.83298ZM15.0602 9.12889L15.0602 10.4321L16.4501 10.4321L16.4501 9.12889L15.0602 9.12889ZM17.8328 11.7025L17.8328 10.4321L16.4501 10.4321L16.4501 11.7025L17.8328 11.7025ZM15.0742 16.878L16.4501 16.878L16.4501 15.6076L15.0741 15.6076L15.0742 16.878ZM10.9146 20.7636L9.5145 20.7636L9.5145 22.0282L12.3188 22.0282L12.3188 20.7636L13.6777 20.7636L13.6777 18.1732L15.0742 18.1732L15.0742 16.8781L13.6777 16.8781L13.6777 18.1732L12.2825 18.1732L12.2784 19.4684L10.921 19.4684L10.921 20.7636M8.12889 20.7636L9.5145 20.7636L9.5145 19.4684L8.12889 19.4684L8.12889 20.7636ZM6.7468 18.1732L6.7468 19.4684L8.12889 19.4684L8.12889 18.1732L6.7468 18.1732ZM5.33656 16.8781L5.33656 18.1732L6.7468 18.1732L6.7468 16.8781L5.33656 16.8781ZM5.33656 14.2925L3.97217 14.2925L3.97217 16.8781L5.33656 16.8781L5.33656 14.2925ZM19.2404 11.7157L17.8328 11.7157L17.8328 14.3092L16.4501 14.3092L16.4501 15.5796L17.8328 15.5796L17.8328 14.3138L20.6162 14.3138L20.6162 13.0082L19.2404 13.0082L19.2404 11.7157Z" fill="rgb(0,0,0)" fill-rule="nonzero" />
	</g>
</svg>
