<svg viewBox="0 0 55 55" xmlns="http://www.w3.org/2000/svg" xmlns:xlink="http://www.w3.org/1999/xlink" width="55.000000" height="55.000000" fill="none" clip-path="url(#clipPath_0)" customFrame="url(#clipPath_0)">
	<defs>
		<clipPath id="clipPath_0">
			<rect width="55.000000" height="55.000000" x="0.000000" y="0.000000" rx="5.000000" fill="rgb(255,255,255)" />
		</clipPath>
	</defs>
	<rect id="folder-open-fill" width="55.000000" height="55.000000" x="0.000000" y="0.000000" rx="5.000000" />
	<path id="矢量 144" d="M13.3826 41.9047C12.9591 41.9047 12.5529 41.7283 12.2534 41.4146C11.9539 41.1008 11.7856 40.6752 11.7856 40.2314L11.7856 13.4589C11.7856 13.0151 11.9539 12.5895 12.2534 12.2757C12.5529 11.9619 12.9591 11.7856 13.3826 11.7856L25.2226 11.7856L28.4166 15.1322L40.5313 15.1322C40.9548 15.1322 41.3611 15.3085 41.6605 15.6223C41.96 15.9361 42.1283 16.3617 42.1283 16.8055L42.1283 21.8253L14.9796 21.8253L14.9796 38.5514L18.1736 25.1719L44.5237 25.1719L40.8347 40.638C40.7482 40.9998 40.5489 41.3211 40.2681 41.5505C39.9875 41.78 39.6416 41.9047 39.2856 41.9047L13.3826 41.9047L13.3826 41.9047Z" fill="rgb(171,171,171)" fill-rule="evenodd" />
</svg>
