<svg viewBox="0 0 26 26" xmlns="http://www.w3.org/2000/svg" xmlns:xlink="http://www.w3.org/1999/xlink" width="26.000000" height="26.000000" fill="none">
	<defs>
		<clipPath id="clipPath_0">
			<rect width="22.000000" height="22.000000" x="2.000000" y="2.000000" rx="3.000000" fill="rgb(255,255,255)" />
		</clipPath>
	</defs>
	<rect id="темная" width="26.000000" height="26.000000" x="0.000000" y="0.000000" />
	<g id="svg 7" clip-path="url(#clipPath_0)" customFrame="url(#clipPath_0)">
		<rect id="svg 7" width="22.000000" height="22.000000" x="2.000000" y="2.000000" rx="3.000000" fill="rgb(255,255,255)" />
		<path id="Форма 2" d="M7.52943 6.9668L7.52943 13.3154L19.7755 13.3154L19.7755 6.9668L7.52943 6.9668ZM2.72363 7.84637C3.47017 9.87191 5.05993 11.3016 6.80163 11.8773L6.80163 7.84637L2.72363 7.84637ZM20.5288 8.37531L20.5288 12.1848C21.4508 11.7945 22.373 11.0995 23.2949 10.1492C22.3702 9.17973 21.463 8.63785 20.5288 8.37544L20.5288 8.37531ZM10.8071 14.0674C10.2851 15.7232 9.35062 17.1396 8.20344 18.3845L19.2827 18.3844C18.0493 17.1376 17.1363 15.718 16.6401 14.0674L10.8072 14.0674L10.8071 14.0674ZM6.37593 19.1874L6.37593 21.0685L20.8806 21.0685L20.8806 19.1874L6.37593 19.1874Z" fill="rgb(0,0,0)" fill-rule="nonzero" />
	</g>
</svg>
