<svg viewBox="0 0 26 26" xmlns="http://www.w3.org/2000/svg" xmlns:xlink="http://www.w3.org/1999/xlink" width="26.000000" height="26.000000" fill="none" clip-path="url(#clipPath_10)" customFrame="url(#clipPath_10)">
	<defs>
		<clipPath id="clipPath_10">
			<rect width="26.000000" height="26.000000" x="0.000000" y="0.000000" rx="4.000000" fill="rgb(255,255,255)" />
		</clipPath>
	</defs>
	<rect id="svg 2" width="26.000000" height="26.000000" x="0.000000" y="0.000000" rx="4.000000" />
	<path id="Форма 1" d="M21.1248 23.8332L4.87484 23.8332C4.12722 23.8332 3.48893 23.5687 2.95996 23.0397C2.43099 22.5107 2.1665 21.8725 2.1665 21.1248L2.1665 4.87484C2.1665 4.12722 2.43099 3.48893 2.95996 2.95996C3.48893 2.43099 4.12722 2.1665 4.87484 2.1665L21.1248 2.1665C21.8725 2.1665 22.5107 2.43099 23.0397 2.95996C23.5687 3.48893 23.8332 4.12722 23.8332 4.87484L23.8332 21.1248C23.8332 21.8725 23.5687 22.5107 23.0397 23.0397C22.5107 23.5687 21.8725 23.8332 21.1248 23.8332ZM21.1248 6.229L15.7082 6.229L15.7082 11.6457L10.2915 11.6457L10.2915 6.229L4.87484 6.229L4.87484 11.6457L10.2915 11.6457L10.2915 14.354L7.58317 14.354L7.58317 19.7707L10.2915 19.7707L10.2915 17.0623L15.7082 17.0623L15.7082 19.7707L18.4165 19.7707L18.4165 14.354L15.7082 14.354L15.7082 11.6457L21.1248 11.6457L21.1248 6.229Z" fill="rgb(0,0,0)" fill-rule="nonzero" />
</svg>
