<svg viewBox="0 0 55 50" xmlns="http://www.w3.org/2000/svg" xmlns:xlink="http://www.w3.org/1999/xlink" width="55.000000" height="50.000000" fill="none" customFrame="#000000">
	<defs>
		<clipPath id="clipPath_1">
			<rect width="30.000000" height="30.000000" x="12.500000" y="2.500000" fill="rgb(255,255,255)" />
		</clipPath>
	</defs>
	<rect id="фрейм 6" width="55.000000" height="50.000000" x="0.000000" y="0.000000" />
	<g id="supervised_user_circle" clip-path="url(#clipPath_1)" customFrame="url(#clipPath_1)">
		<rect id="supervised_user_circle" width="30.000000" height="30.000000" x="12.500000" y="2.500000" fill="rgb(255,255,255)" fill-opacity="0" />
		<path id="矢量 304" d="M27.4873 5C20.5873 5 14.9873 10.6 14.9873 17.5C14.9873 24.4 20.5873 30 27.4873 30C34.3873 30 39.9873 24.4 39.9873 17.5C39.9873 10.6 34.3873 5 27.4873 5ZM31.9998 12.925C33.3373 12.925 34.4123 14 34.4123 15.3375C34.4123 16.675 33.3373 17.75 31.9998 17.75C30.6623 17.75 29.5873 16.675 29.5873 15.3375C29.5748 14 30.6623 12.925 31.9998 12.925ZM24.4998 10.95C26.1248 10.95 27.4498 12.275 27.4498 13.9C27.4498 15.525 26.1248 16.85 24.4998 16.85C22.8748 16.85 21.5498 15.525 21.5498 13.9C21.5498 12.2625 22.8623 10.95 24.4998 10.95ZM24.4998 22.3625L24.4998 27.05C21.4998 26.1125 19.1248 23.8 18.0748 20.85C19.3873 19.45 22.6623 18.7375 24.4998 18.7375C25.1623 18.7375 25.9998 18.8375 26.8748 19.0125C24.8248 20.1 24.4998 21.5375 24.4998 22.3625ZM27.4873 27.5C27.1498 27.5 26.8248 27.4875 26.4998 27.45L26.4998 22.3625C26.4998 20.5875 30.1748 19.7 31.9998 19.7C33.3373 19.7 35.6498 20.1875 36.7998 21.1375C35.3373 24.85 31.7248 27.5 27.4873 27.5Z" fill="rgb(0,95,255)" fill-rule="evenodd" />
	</g>
	<path id="" d="M7.11242 42.7012L3.21301 42.7012L2.46887 44.5L0.476681 44.5L4.22082 36.1006L6.13977 36.1006L9.89563 44.5L7.85656 44.5L7.11242 42.7012ZM6.50012 41.2246L5.17004 38.0078L3.83703 41.2246L6.50012 41.2246ZM13.7121 42.0508L12.7395 42.0508L12.7395 44.5L10.8674 44.5L10.8674 38.043L12.7395 38.043L12.7395 40.5508L13.7473 40.5508L15.4993 38.043L17.4914 38.043L15.2356 41.1396L17.6467 44.5L15.4407 44.5L13.7121 42.0508ZM21.4161 42.0508L20.4435 42.0508L20.4435 44.5L18.5714 44.5L18.5714 38.043L20.4435 38.043L20.4435 40.5508L21.4513 40.5508L23.2033 38.043L25.1954 38.043L22.9396 41.1396L25.3507 44.5L23.1447 44.5L21.4161 42.0508ZM28.6662 37.9492C29.6662 37.9492 30.4337 38.1875 30.9689 38.6641C31.506 39.1387 31.7746 39.8564 31.7746 40.8174L31.7746 44.5L30.0226 44.5L30.0226 43.6973C29.6691 44.2969 29.0128 44.5967 28.0539 44.5967C27.5578 44.5967 27.1271 44.5127 26.7619 44.3447C26.3986 44.1768 26.1212 43.9453 25.9298 43.6504C25.7384 43.3535 25.6427 43.0166 25.6427 42.6396C25.6427 42.04 25.8683 41.5684 26.3195 41.2246C26.7706 40.8809 27.4689 40.709 28.4142 40.709L29.9025 40.709C29.9025 40.3008 29.7785 39.9863 29.5304 39.7656C29.2824 39.5449 28.9103 39.4346 28.4142 39.4346C28.0705 39.4346 27.7326 39.4893 27.4005 39.5986C27.0685 39.7061 26.7863 39.8516 26.5539 40.0352L25.88 38.7285C26.2335 38.4805 26.6564 38.2891 27.1486 38.1543C27.6408 38.0176 28.1466 37.9492 28.6662 37.9492ZM28.5226 43.3369C28.841 43.3369 29.1242 43.2627 29.3722 43.1143C29.6203 42.9658 29.797 42.748 29.9025 42.4609L29.9025 41.7988L28.6164 41.7988C27.8488 41.7988 27.465 42.0508 27.465 42.5547C27.465 42.7949 27.5587 42.9854 27.7462 43.126C27.9357 43.2666 28.1945 43.3369 28.5226 43.3369ZM39.8722 38.043L36.9571 44.8955C36.6603 45.6396 36.294 46.1631 35.8585 46.4658C35.4229 46.7705 34.8966 46.9229 34.2794 46.9229C33.9435 46.9229 33.6114 46.8711 33.2833 46.7676C32.9571 46.6641 32.6895 46.5205 32.4806 46.3369L33.1661 45.0039C33.3087 45.1328 33.4737 45.2324 33.6612 45.3027C33.8507 45.375 34.0372 45.4111 34.2208 45.4111C34.4767 45.4111 34.6847 45.3486 34.8448 45.2236C35.005 45.1006 35.1485 44.8955 35.2755 44.6084L35.3019 44.5469L32.504 38.043L34.4376 38.043L36.2481 42.4229L38.0733 38.043L39.8722 38.043ZM40.7714 38.043L42.6318 38.043L42.6318 40.5654L45.4413 40.5654L45.4413 38.043L47.3134 38.043L47.3134 44.5L45.4413 44.5L45.4413 42.0889L42.6318 42.0889L42.6318 44.5L40.7714 44.5L40.7714 38.043ZM54.5252 39.5811L52.3396 39.5811L52.3396 44.5L50.4793 44.5L50.4793 39.5811L48.2967 39.5811L48.2967 38.043L54.5252 38.043L54.5252 39.5811Z" fill="rgb(0,95,255)" fill-rule="nonzero" />
</svg>
