<svg viewBox="0 0 61 61" xmlns="http://www.w3.org/2000/svg" xmlns:xlink="http://www.w3.org/1999/xlink" width="61.000000" height="61.000000" fill="none">
	<rect id="HLlogo" width="61.000000" height="61.000000" x="0.000000" y="0.000000" />
	<path id="Вектор 1" d="M10.0687 17.3443C10.0749 12.7392 15.8738 11.2798 16.3277 11.6041C16.338 11.6115 16.3602 11.6041 16.3602 11.6041L16.3602 27.9165L29.754 27.9165L29.754 8.91241C31.0838 4.5019 36.0777 5.02078 36.0777 5.02078L36.0777 44.6181C36.0777 44.6181 30.6296 44.8128 29.7215 38.8131L29.7215 34.1757L16.3602 34.1757C16.3602 38.8131 16.3277 44.3262 16.3277 49.9368C15.5496 55.9038 10.0039 55.9038 10.0039 55.9038C10.0039 55.9038 10.0362 41.4075 10.0687 17.3443Z" fill="rgb(0,95,255)" fill-rule="nonzero" />
	<path id="Вектор 2" d="M22.2627 38.1973L22.2627 55.9692L50.9959 55.9692C50.9959 55.9692 50.8662 50.229 44.1855 49.6128L28.5867 49.6128L28.5867 44.1645C27.8731 38.1973 22.2627 38.1973 22.2627 38.1973Z" fill="rgb(0,95,255)" fill-rule="nonzero" />
	<path id="Вектор 3" d="M50.996 47.0508L50.996 17.8311L48.1097 17.8311C48.1097 17.8311 45.6452 18.3499 44.6396 20.393C44.6396 24.202 44.6396 34.4302 44.6396 39.814L44.6396 41.5701C45.6126 47.3751 50.996 47.0508 50.996 47.0508Z" fill="rgb(0,95,255)" fill-rule="nonzero" />
</svg>
