<svg viewBox="0 0 22 22" xmlns="http://www.w3.org/2000/svg" xmlns:xlink="http://www.w3.org/1999/xlink" width="22.000000" height="22.000000" fill="none">
	<rect id="error_outline" width="22.000000" height="22.000000" x="0.000000" y="0.000000" fill="rgb(255,255,255)" fill-opacity="0" />
	<path id="矢量 5" d="M10.083 13.7497L11.9163 13.7497L11.9163 15.583L10.083 15.583L10.083 13.7497ZM10.083 6.41634L11.9163 6.41634L11.9163 11.9163L10.083 11.9163L10.083 6.41634ZM10.9905 1.83301C5.93051 1.83301 1.83301 5.93967 1.83301 10.9997C1.83301 16.0597 5.93051 20.1663 10.9905 20.1663C16.0597 20.1663 20.1663 16.0597 20.1663 10.9997C20.1663 5.93967 16.0597 1.83301 10.9905 1.83301ZM10.9997 18.333C6.94801 18.333 3.66634 15.0513 3.66634 10.9997C3.66634 6.94801 6.94801 3.66634 10.9997 3.66634C15.0513 3.66634 18.333 6.94801 18.333 10.9997C18.333 15.0513 15.0513 18.333 10.9997 18.333Z" fill="rgb(255,255,255)" fill-rule="evenodd" />
</svg>
