<svg viewBox="0 0 34 34" xmlns="http://www.w3.org/2000/svg" xmlns:xlink="http://www.w3.org/1999/xlink" width="34.000000" height="34.000000" fill="none">
	<rect id="icon_light" width="34.000000" height="34.000000" x="0.000000" y="0.000000" />
	<path id="Вектор 1" d="M5.61227 9.66742C5.61574 7.10064 8.84789 6.28723 9.10092 6.46799C9.10666 6.47209 9.119 6.46799 9.119 6.46799L9.119 15.5601L16.5844 15.5601L16.5844 4.96769C17.3256 2.50937 20.1091 2.79858 20.1091 2.79858L20.1091 24.8692C20.1091 24.8692 17.0725 24.9777 16.5663 21.6336L16.5663 19.0489L9.119 19.0489C9.119 21.6336 9.10092 24.7065 9.10092 27.8337C8.66721 31.1596 5.57617 31.1596 5.57617 31.1596C5.57617 31.1596 5.59418 23.0797 5.61227 9.66742Z" fill="rgb(0,0,0)" fill-rule="nonzero" />
	<path id="Вектор 2" d="M12.4092 21.29L12.4092 31.1957L28.4244 31.1957C28.4244 31.1957 28.3521 27.9963 24.6285 27.6528L15.934 27.6528L15.934 24.6161C15.5363 21.29 12.4092 21.29 12.4092 21.29Z" fill="rgb(0,0,0)" fill-rule="nonzero" />
	<path id="Вектор 3" d="M28.4238 26.2249L28.4238 9.93848L26.815 9.93848C26.815 9.93848 25.4413 10.2277 24.8809 11.3665C24.8809 13.4895 24.8809 19.1905 24.8809 22.1912L24.8809 23.1701C25.4231 26.4056 28.4238 26.2249 28.4238 26.2249Z" fill="rgb(0,0,0)" fill-rule="nonzero" />
</svg>
